<svg xmlns="http://www.w3.org/2000/svg" xmlns:xlink="http://www.w3.org/1999/xlink" viewBox="0 0 31.89 31.89"><defs><style>.cls-1{fill:none;}.cls-2{fill:#764897;}.cls-3{clip-path:url(#clip-path);}.cls-4{fill:#fff;}</style><clipPath id="clip-path"><path class="cls-1" d="M31.89,15.94A15.94,15.94,0,1,0,15.94,31.89,15.94,15.94,0,0,0,31.89,15.94Z"/></clipPath></defs><title>logo-web</title><g id="Calque_2" data-name="Calque 2"><g id="Calque_1-2" data-name="Calque 1"><path class="cls-2" d="M31.89,15.94A15.94,15.94,0,1,0,15.94,31.89,15.94,15.94,0,0,0,31.89,15.94Z"/><g class="cls-3"><polygon class="cls-4" points="24.32 21.77 21.07 21.77 21.07 8.55 24.32 8.55 24.32 21.77 24.32 21.77"/><polygon class="cls-4" points="21.07 24.95 17.82 24.95 17.82 21.77 21.07 21.77 21.07 24.95 21.07 24.95"/><polygon class="cls-4" points="17.82 21.77 14.58 21.77 14.58 15.39 17.82 15.39 17.82 21.77 17.82 21.77"/><polygon class="cls-4" points="14.58 24.99 11.33 24.99 11.33 21.77 14.58 21.77 14.58 24.99 14.58 24.99"/><polygon class="cls-4" points="14.58 12.24 11.33 12.24 11.33 9.02 14.58 9.02 14.58 12.24 14.58 12.24"/><polygon class="cls-4" points="8.08 15.39 4.83 15.39 4.83 12.17 8.08 12.17 8.08 15.39 8.08 15.39"/><polygon class="cls-4" points="11.33 21.77 8.08 21.77 8.08 15.39 11.33 15.39 11.33 21.77 11.33 21.77"/></g></g></g></svg>