<svg xmlns="http://www.w3.org/2000/svg" xmlns:xlink="http://www.w3.org/1999/xlink" viewBox="0 0 31.89 31.89"><defs><style>.cls-1{fill:none;}.cls-2{fill:#3873b9;}.cls-3{clip-path:url(#clip-path);}.cls-4{fill:#fff;}</style><clipPath id="clip-path"><path class="cls-1" d="M31.89,15.94A15.94,15.94,0,1,0,15.94,31.89,15.94,15.94,0,0,0,31.89,15.94Z"/></clipPath></defs><title>logo-audio</title><g id="Calque_2" data-name="Calque 2"><g id="Calque_1-2" data-name="Calque 1"><path class="cls-2" d="M31.89,15.94A15.94,15.94,0,1,0,15.94,31.89,15.94,15.94,0,0,0,31.89,15.94Z"/><g class="cls-3"><polygon class="cls-4" points="11.43 17.6 13.21 17.6 13.21 24.98 13.99 24.98 13.99 13.95 15.77 13.95 15.77 24.98 16.55 24.98 16.55 11.26 18.33 11.26 18.33 24.98 19.11 24.98 19.11 20.26 20.9 20.26 20.9 24.98 24.25 24.98 18.3 6.66 13.57 6.66 7.64 24.98 11.43 24.98 11.43 17.6 11.43 17.6"/></g></g></g></svg>