<svg xmlns="http://www.w3.org/2000/svg" xmlns:xlink="http://www.w3.org/1999/xlink" viewBox="0 0 31.89 31.89"><defs><style>.cls-1{fill:none;}.cls-2{fill:#fbba00;}.cls-3{clip-path:url(#clip-path);}.cls-4{fill:#fff;}</style><clipPath id="clip-path"><path class="cls-1" d="M31.89,15.94A15.94,15.94,0,1,0,15.94,31.89,15.94,15.94,0,0,0,31.89,15.94Z"/></clipPath></defs><title>logo-film</title><g id="Calque_2" data-name="Calque 2"><g id="Calque_1-2" data-name="Calque 1"><path class="cls-2" d="M31.89,15.94A15.94,15.94,0,1,0,15.94,31.89,15.94,15.94,0,0,0,31.89,15.94Z"/><g class="cls-3"><path class="cls-4" d="M22.79,9.4V6.21H10.44v19h4.91V16.73h5.59V13.34H15.35V9.4ZM13.41,23.09H11.2V20.87h2.22v2.22Zm0-3.48H11.2V17.39h2.22v2.22Zm0-3.48H11.2V13.91h2.22v2.22Zm0-3.48H11.2V10.44h2.22v2.22Zm0-3.48H11.2V7h2.22V9.18Z"/></g></g></g></svg>