<svg xmlns="http://www.w3.org/2000/svg" xmlns:xlink="http://www.w3.org/1999/xlink" viewBox="0 0 31.89 31.89"><defs><style>.cls-1{fill:none;}.cls-2{fill:#53b89c;}.cls-3{clip-path:url(#clip-path);}.cls-4{fill:#fff;}</style><clipPath id="clip-path"><path class="cls-1" d="M31.89,15.94A15.95,15.95,0,1,0,15.94,31.89,15.94,15.94,0,0,0,31.89,15.94Z"/></clipPath></defs><title>logo-musicbusiness</title><g id="Calque_2" data-name="Calque 2"><g id="Calque_1-2" data-name="Calque 1"><path class="cls-2" d="M31.89,15.94A15.95,15.95,0,1,0,15.94,31.89,15.94,15.94,0,0,0,31.89,15.94Z"/><g class="cls-3"><path class="cls-4" d="M23,17.94a3.57,3.57,0,0,0-.7-1.25,3.28,3.28,0,0,0-1-.78,5.93,5.93,0,0,0-1.28-.43v-.13a3.05,3.05,0,0,0,1.2-.46A3.31,3.31,0,0,0,22,14a3.8,3.8,0,0,0,.55-1.19,5.41,5.41,0,0,0,.19-1.45,4.81,4.81,0,0,0-.44-2.17A3.53,3.53,0,0,0,21,7.8,6.32,6.32,0,0,0,18.81,7a16.47,16.47,0,0,0-2.91-.24V10H18.3c.64,0,1.17.73,1.17,1.62s-.52,1.62-1.17,1.62H13.93V10a5,5,0,0,1,1.77-3.27H10.41V25.08H16.7V21.91H13.93V18.34h3.75a1.78,1.78,0,0,1,1.78,1.78c0,1.67-2.1,4.3-2.64,5h.05a8.94,8.94,0,0,0,2.65-.36,5.73,5.73,0,0,0,2-1A4.54,4.54,0,0,0,22.78,22a5.43,5.43,0,0,0,.44-2.24A5.69,5.69,0,0,0,23,17.94Z"/></g></g></g></svg>