<svg xmlns="http://www.w3.org/2000/svg" xmlns:xlink="http://www.w3.org/1999/xlink" viewBox="0 0 31.89 31.89"><defs><style>.cls-1{fill:none;}.cls-2{fill:#00a7b5;}.cls-3{clip-path:url(#clip-path);}.cls-4{fill:#fff;}</style><clipPath id="clip-path"><path class="cls-1" d="M31.89,15.94A15.95,15.95,0,1,0,15.95,31.89,15.94,15.94,0,0,0,31.89,15.94Z"/></clipPath></defs><title>logo-animation</title><g id="Calque_2" data-name="Calque 2"><g id="Calque_1-2" data-name="Calque 1"><path class="cls-2" d="M31.89,15.94A15.95,15.95,0,1,0,15.95,31.89,15.94,15.94,0,0,0,31.89,15.94Z"/><g class="cls-3"><path class="cls-4" d="M15.95,11.88a2.06,2.06,0,0,0-.87,3.92,1.13,1.13,0,1,1,1.74,0,2.06,2.06,0,0,0-.87-3.92Z"/><path class="cls-4" d="M20.34,12.93c2.24-1.81,1.61-5,1.39-5.9,0,1.14-1.38,2.56-2.22,3.33L18.3,6.66H13.57l-1.22,3.76c-.83-.74-2.3-2.22-2.3-3.39-.22,1-.86,4.16,1.47,6L7.64,25h3.91l1.26-4.34H19.1L20.34,25h3.91L20.34,12.93Zm-4.39,6.36s-3-2.43-3-5.42,3-5.42,3-5.42,3,2.43,3,5.42-3,5.42-3,5.42Z"/></g></g></g></svg>