<svg xmlns="http://www.w3.org/2000/svg" xmlns:xlink="http://www.w3.org/1999/xlink" viewBox="0 0 31.89 31.89"><defs><style>.cls-1{fill:none;}.cls-2{fill:#009fe3;}.cls-3{clip-path:url(#clip-path);}.cls-4{fill:#fff;}</style><clipPath id="clip-path"><path class="cls-1" d="M31.89,15.94A15.94,15.94,0,1,0,15.95,31.89,15.94,15.94,0,0,0,31.89,15.94Z"/></clipPath></defs><title>logo-crossmedia</title><g id="Calque_2" data-name="Calque 2"><g id="Calque_1-2" data-name="Calque 1"><path class="cls-2" d="M31.89,15.94A15.94,15.94,0,1,0,15.95,31.89,15.94,15.94,0,0,0,31.89,15.94Z"/><g class="cls-3"><polygon class="cls-4" points="23.64 19.2 20.39 19.2 20.39 8.55 23.64 8.55 23.64 19.2 23.64 19.2"/><polygon class="cls-4" points="23.64 23.17 20.39 23.17 20.39 20.02 23.64 20.02 23.64 23.17 23.64 23.17"/><polygon class="cls-4" points="7.76 14.03 7.76 23.17 11.01 23.17 11.01 16.18 7.76 14.03 7.76 14.03"/><polygon class="cls-4" points="19.15 15.18 19.15 11.48 15.67 13.78 7.76 8.55 7.76 12.25 15.67 17.48 19.15 15.18 19.15 15.18"/></g></g></g></svg>