<svg xmlns="http://www.w3.org/2000/svg" xmlns:xlink="http://www.w3.org/1999/xlink" viewBox="0 0 31.89 31.89"><defs><style>.cls-1{fill:none;}.cls-2{fill:#e11f1d;}.cls-3{clip-path:url(#clip-path);}.cls-4{fill:#fff;}</style><clipPath id="clip-path"><path class="cls-1" d="M31.89,15.94A15.94,15.94,0,1,0,15.94,31.89,15.94,15.94,0,0,0,31.89,15.94Z"/></clipPath></defs><title>logo-game</title><g id="Calque_2" data-name="Calque 2"><g id="Calque_1-2" data-name="Calque 1"><path class="cls-2" d="M31.89,15.94A15.94,15.94,0,1,0,15.94,31.89,15.94,15.94,0,0,0,31.89,15.94Z"/><g class="cls-3"><path class="cls-4" d="M11.76,9.87a7.39,7.39,0,0,1,8.38,0l2.63-2.63a11.06,11.06,0,0,0-13.63,0l2.63,2.63Z"/><path class="cls-4" d="M9.87,20.13a7.38,7.38,0,0,1,0-8.38L7.24,9.13a11.06,11.06,0,0,0,0,13.63l2.63-2.63Z"/><path class="cls-4" d="M20.13,22a7.38,7.38,0,0,1-8.38,0L9.13,24.65a11.06,11.06,0,0,0,13.63,0L20.13,22Z"/><path class="cls-4" d="M22.14,11.64l-.12.12-3.3,3.3,2.08,2.08,2.41-2.41A7.38,7.38,0,0,1,22,20.13l2.63,2.63a11.06,11.06,0,0,0,0-13.63l-2.51,2.51Z"/></g></g></g></svg>